<?xml version="1.0" standalone="no"?>
<!DOCTYPE svg PUBLIC "-//W3C//DTD SVG 20010904//EN"
 "http://www.w3.org/TR/2001/REC-SVG-20010904/DTD/svg10.dtd">
<svg version="1.0" xmlns="http://www.w3.org/2000/svg"
 width="1000.000000pt" height="1000.000000pt" viewBox="0 0 1000.000000 1000.000000"
 preserveAspectRatio="xMidYMid meet">
<metadata>
Created by potrace 1.11, written by Peter Selinger 2001-2013
</metadata>
<g transform="translate(0.000000,1000.000000) scale(0.100000,-0.100000)"
fill="#000000" stroke="none">
<path d="M7045 9700 c-530 -32 -1026 -185 -1355 -417 -143 -102 -340 -303
-433 -443 -134 -202 -235 -451 -290 -715 l-26 -120 0 823 -1 822 -560 0 -559
0 -4 -1357 c-3 -1214 -5 -1368 -20 -1453 -79 -448 -275 -655 -649 -686 -102
-8 -250 10 -335 41 -205 74 -336 231 -408 488 -49 174 -48 132 -52 1595 l-4
1372 -560 0 -560 0 4 -1437 c3 -1559 1 -1497 58 -1718 145 -566 532 -937 1139
-1090 347 -87 792 -99 1165 -31 586 107 1008 418 1206 890 86 207 123 411 139
771 1 11 12 -27 25 -85 53 -228 160 -481 280 -659 321 -478 861 -797 1550
-916 394 -68 908 -57 1385 31 167 31 430 93 430 102 1 39 -85 829 -91 836 -4
5 -37 -2 -76 -16 -346 -129 -827 -200 -1138 -169 -596 59 -1011 358 -1178 851
-37 108 -56 214 -68 369 -35 443 79 789 357 1080 188 198 464 342 734 383 108
17 383 14 530 -6 237 -32 482 -106 695 -212 64 -31 117 -55 119 -53 4 6 118
931 114 934 -8 6 -274 78 -373 99 -378 85 -810 119 -1190 96z"/>
<path d="M3005 5174 c-1001 -73 -1599 -437 -1758 -1072 -35 -137 -50 -292 -42
-432 34 -610 308 -965 937 -1214 64 -25 255 -89 425 -142 418 -131 546 -182
670 -270 113 -81 175 -176 192 -298 25 -176 -48 -335 -193 -420 -136 -80 -390
-123 -662 -112 -407 15 -757 99 -1103 262 -63 30 -116 52 -119 49 -9 -8 -150
-1040 -143 -1047 9 -11 298 -83 446 -112 321 -63 359 -66 948 -66 497 0 552 2
666 20 531 87 931 295 1162 604 75 101 170 292 203 411 77 274 86 590 26 865
-83 372 -320 685 -691 907 -208 125 -420 215 -789 333 -484 155 -573 189 -649
249 -52 41 -65 77 -58 156 22 283 331 410 952 392 306 -9 542 -52 805 -147
150 -54 150 -54 150 -41 0 6 25 214 55 462 30 248 55 461 55 474 0 18 -8 25
-42 34 -440 118 -677 151 -1103 156 -159 1 -312 1 -340 -1z"/>
<path d="M4910 2740 l0 -2381 1168 4 c1030 3 1181 6 1287 21 705 99 1112 355
1299 815 66 162 103 412 92 606 -25 407 -204 684 -556 860 -80 40 -278 108
-347 120 -51 8 -55 21 -10 30 57 13 200 79 277 130 105 68 273 241 332 341 64
109 114 239 138 355 35 172 24 453 -25 628 -111 395 -424 669 -895 785 -253
62 -191 60 -1532 63 l-1228 4 0 -2381z m2030 1442 c160 -34 252 -76 328 -153
103 -104 136 -289 80 -450 -29 -86 -116 -178 -216 -228 -158 -80 -363 -111
-724 -111 l-238 0 0 486 0 486 338 -5 c283 -5 352 -9 432 -25z m-51 -1812
c333 -42 528 -173 587 -393 18 -69 18 -228 -1 -300 -35 -136 -122 -241 -249
-302 -167 -79 -287 -96 -713 -102 l-343 -5 0 562 0 563 318 -6 c174 -3 355
-11 401 -17z"/>
</g>
</svg>
