<?xml version="1.0" encoding="utf-8"?>
<!-- Generator: Adobe Illustrator 18.1.1, SVG Export Plug-In . SVG Version: 6.00 Build 0)  -->
<!DOCTYPE svg PUBLIC "-//W3C//DTD SVG 1.1//EN" "http://www.w3.org/Graphics/SVG/1.1/DTD/svg11.dtd">
<svg version="1.1" id="Capa_1" xmlns="http://www.w3.org/2000/svg" xmlns:xlink="http://www.w3.org/1999/xlink" x="0px" y="0px"
	 viewBox="-46.2 149.6 504.6 368.7" enable-background="new -46.2 149.6 504.6 368.7" xml:space="preserve">
<g>
	<path fill="#FFFFFF" d="M103.3,213.5c-7.6-7.6-19.9-7.6-27.4,0L-40.5,329.9c-7.6,7.6-7.6,19.9,0,27.4L75.9,473.8
		c3.8,3.8,8.8,5.7,13.7,5.7s9.9-1.9,13.7-5.7c7.6-7.6,7.6-19.9,0-27.4L0.6,343.7l102.7-102.7C110.9,233.4,110.9,221.1,103.3,213.5z"
		/>
	<path fill="#FFFFFF" d="M336.2,213.5c-7.6-7.6-19.9-7.6-27.4,0s-7.6,19.9,0,27.4l102.7,102.7L308.8,446.4c-7.6,7.6-7.6,19.9,0,27.4
		c3.8,3.8,8.8,5.7,13.7,5.7c5,0,9.9-1.9,13.7-5.7l116.4-116.4c7.6-7.6,7.6-19.9,0-27.4L336.2,213.5z"/>
	<path fill="#FFFFFF" d="M270.7,150.7c-10.1-3.6-21.2,1.7-24.8,11.8L129.5,492.4c-3.6,10.1,1.7,21.2,11.8,24.8
		c2.1,0.8,4.3,1.1,6.5,1.1c8,0,15.5-5,18.3-12.9l116.4-329.9C286.1,165.4,280.9,154.3,270.7,150.7z"/>
</g>
</svg>
