<?xml version="1.0" encoding="utf-8"?>
<!-- Generator: Adobe Illustrator 19.1.0, SVG Export Plug-In . SVG Version: 6.00 Build 0)  -->
<svg version="1.1" id="Layer_1" xmlns="http://www.w3.org/2000/svg" xmlns:xlink="http://www.w3.org/1999/xlink" x="0px" y="0px"
	 viewBox="0 0 272.9 30.1" enable-background="new 0 0 272.9 30.1" xml:space="preserve">
<g>
	<path fill="#FFCF37" d="M17.6,15.1c0,5.5-2.8,8.4-7.6,8.4s-7.6-2.9-7.6-8.4V3.7h2.8v11c0,3.7,1.2,6.3,4.8,6.3
		c3.6,0,4.8-2.6,4.8-6.3v-11h2.8V15.1z"/>
	<path fill="#FFCF37" d="M33.8,6.9c-1.2-0.7-2.6-1.1-4-1.1c-4.5,0-7.5,3.2-7.5,7.6c0,4.6,3.3,7.6,7.3,7.6c1.4,0,3.3-0.4,4.2-0.9
		l0.2,2.7c-1.5,0.6-3.3,0.7-4.4,0.7c-6.2,0-10.3-4-10.3-10.1c0-6,4.3-10,10.3-10c1.5,0,3,0.2,4.4,0.8L33.8,6.9z"/>
	<path fill="#FFCF37" d="M40.7,18.3c1.3,0.7,3.2,1.3,5.4,1.3c1.6,0,3.2-0.3,3.2-1.9c0-3.6-9.2-1.3-9.2-8.4c0-4.7,4.6-6,8.5-6
		c1.9,0,3.7,0.3,5,0.7l-0.3,4c-1.3-0.6-2.8-0.9-4.3-0.9c-1.3,0-3.5,0.1-3.5,1.8c0,3.2,9.2,1,9.2,8.1c0,5-4.2,6.4-8.6,6.4
		c-1.8,0-4.1-0.3-5.8-0.8L40.7,18.3z"/>
	<path fill="#FFCF37" d="M61.2,3.7h6.4l7.5,19.5h-5.7L68,19h-7.3l-1.5,4.2h-5.3L61.2,3.7z M64.4,7.7L64.4,7.7l-2.6,7.6h4.9L64.4,7.7
		z"/>
	<path fill="#FFCF37" d="M76.1,3.7h6.6l6.6,13.2h0.1L89.3,3.7H94v19.5h-6.4L80.8,9.8h-0.1l0.2,13.3h-4.8V3.7z"/>
	<path fill="#FFCF37" d="M99.9,7.5h-4.8V3.7h14.8v3.8h-4.8v15.6h-5.2V7.5z"/>
	<path fill="#FFCF37" d="M114.2,3.7h6.4l7.5,19.5h-5.7l-1.5-4.2h-7.3l-1.5,4.2h-5.3L114.2,3.7z M117.3,7.7L117.3,7.7l-2.6,7.6h4.9
		L117.3,7.7z"/>
	<path fill="#FFCF37" d="M138.4,3.7h8.9c3.6,0,6.3,1.6,6.3,4.9c0,2.5-1.3,3.8-3.4,4.5v0.1c2.6,0.5,3.9,1.9,3.9,4.3
		c0,4.7-4.1,5.6-7.6,5.6h-8.2V3.7z M143.6,11.4h1.4c1.7,0,3.5-0.4,3.5-2.1c0-1.8-1.7-2-3.4-2h-1.5V11.4z M143.6,19.5h1.5
		c1.9,0,3.9-0.3,3.9-2.3c0-2.1-2-2.3-3.8-2.3h-1.6V19.5z"/>
	<path fill="#FFCF37" d="M161.3,3.7h6.4l7.5,19.5h-5.7L168,19h-7.3l-1.5,4.2h-5.3L161.3,3.7z M164.5,7.7L164.5,7.7l-2.6,7.6h4.9
		L164.5,7.7z"/>
	<path fill="#FFCF37" d="M176.5,3.7h9.3c3.5,0,6.3,1.6,6.3,4.9c0,2.6-1.2,4.3-3.7,4.9v0.1c1.7,0.4,1.8,1.9,2.8,4.3l1.9,5.3h-5.4
		l-1.1-3.5c-1.1-3.3-1.7-4.2-3.7-4.2h-1.1v7.7h-5.2V3.7z M181.7,11.8h1.4c1.7,0,3.8-0.1,3.8-2.3c0-1.8-1.8-2.1-3.8-2.1h-1.4V11.8z"
		/>
	<path fill="#FFCF37" d="M194.5,3.7h8.9c3.6,0,6.3,1.6,6.3,4.9c0,2.5-1.3,3.8-3.4,4.5v0.1c2.6,0.5,3.9,1.9,3.9,4.3
		c0,4.7-4.1,5.6-7.6,5.6h-8.2V3.7z M199.7,11.4h1.4c1.7,0,3.5-0.4,3.5-2.1c0-1.8-1.7-2-3.4-2h-1.5V11.4z M199.7,19.5h1.5
		c1.9,0,3.9-0.3,3.9-2.3c0-2.1-2-2.3-3.8-2.3h-1.6V19.5z"/>
	<path fill="#FFCF37" d="M217.9,3.7h6.4l7.5,19.5h-5.7l-1.5-4.2h-7.3l-1.5,4.2h-5.3L217.9,3.7z M221.1,7.7L221.1,7.7l-2.6,7.6h4.9
		L221.1,7.7z"/>
	<path fill="#FFCF37" d="M233.1,3.7h9.3c3.5,0,6.3,1.6,6.3,4.9c0,2.6-1.2,4.3-3.7,4.9v0.1c1.7,0.4,1.8,1.9,2.8,4.3l1.9,5.3h-5.4
		l-1.1-3.5c-1.1-3.3-1.7-4.2-3.7-4.2h-1.1v7.7h-5.2V3.7z M238.3,11.8h1.4c1.7,0,3.8-0.1,3.8-2.3c0-1.8-1.8-2.1-3.8-2.1h-1.4V11.8z"
		/>
	<path fill="#FFCF37" d="M258.2,3.7h6.4l7.5,19.5h-5.7l-1.5-4.2h-7.3l-1.5,4.2h-5.3L258.2,3.7z M261.4,7.7L261.4,7.7l-2.6,7.6h4.9
		L261.4,7.7z"/>
</g>
</svg>
